<?xml version="1.0" encoding="UTF-8" standalone="no"?>
<!DOCTYPE svg PUBLIC "-//W3C//DTD SVG 1.1//EN" "http://www.w3.org/Graphics/SVG/1.1/DTD/svg11.dtd">
<svg xmlns="http://www.w3.org/2000/svg" version="1.1" viewBox="180 200 570 540"  xmlns:xlink="http://www.w3.org/1999/xlink">
<defs>
<path d="M 0.00 0.00 L 1024.00 0.00 L 1024.00 1024.00 L 0.00 1024.00 L 0.00 0.00 Z M 578.38 379.71 C 578.18 370.64 578.26 361.55 578.33 352.49 C 575.19 351.44 572.25 351.88 569.00 351.82 C 555.99 351.81 542.97 351.84 529.96 351.80 C 528.46 351.78 527.01 352.07 525.55 352.41 C 525.68 458.03 525.56 563.73 525.61 669.36 C 544.66 669.43 563.71 669.38 582.76 669.39 C 582.78 635.53 582.74 601.68 582.78 567.83 C 592.69 576.27 603.26 583.75 615.47 588.51 C 635.36 596.69 658.76 596.92 679.67 593.25 C 694.68 590.13 709.10 584.52 721.85 575.91 C 740.21 563.86 754.41 546.23 763.28 526.20 C 775.57 498.65 777.59 467.84 771.25 438.51 C 766.28 416.84 756.13 396.46 740.51 380.50 C 731.60 371.72 721.81 364.04 710.47 358.63 C 688.92 347.95 663.74 344.48 639.97 347.32 C 624.72 349.61 609.30 354.78 596.44 363.41 C 589.78 368.26 583.48 373.19 578.38 379.71 Z M 251.21 668.58 C 270.76 668.59 290.32 668.59 309.88 668.58 C 309.89 591.75 309.87 514.93 309.89 438.11 C 354.22 514.87 398.30 591.82 442.61 668.60 C 464.52 668.57 486.42 668.61 508.32 668.58 C 508.34 562.85 508.32 457.13 508.33 351.40 C 488.71 351.36 469.09 351.36 449.47 351.40 C 449.47 423.60 449.47 495.80 449.47 568.00 C 449.44 572.77 449.60 577.52 449.26 582.29 C 444.58 573.26 439.25 564.57 434.29 555.69 C 395.63 487.59 356.84 419.54 318.18 351.43 C 295.90 351.34 273.55 351.34 251.27 351.43 C 251.12 456.69 251.25 563.18 251.21 668.58 Z M 726.69 610.82 C 713.01 614.35 703.12 626.94 702.57 641.01 C 702.27 648.65 704.68 656.53 709.50 662.52 C 714.73 669.19 722.56 673.67 730.97 674.75 C 739.87 676.03 748.87 673.32 755.90 667.80 C 767.69 658.35 771.52 641.03 764.43 627.58 C 757.69 613.85 741.43 606.62 726.69 610.82 Z" id="p0" />
<path d="M 710.47 358.63 C 721.81 364.04 731.60 371.72 740.51 380.50 C 756.13 396.46 766.28 416.84 771.25 438.51 C 777.59 467.84 775.57 498.65 763.28 526.20 C 754.41 546.23 740.21 563.86 721.85 575.91 C 709.10 584.52 694.68 590.13 679.67 593.25 C 658.76 596.92 635.36 596.69 615.47 588.51 C 603.26 583.75 592.69 576.27 582.78 567.83 C 582.74 601.68 582.78 635.53 582.76 669.39 C 563.71 669.38 544.66 669.43 525.61 669.36 C 525.56 563.73 525.68 458.03 525.55 352.41 C 527.01 352.07 528.46 351.78 529.96 351.80 C 542.97 351.84 555.99 351.81 569.00 351.82 C 572.25 351.88 575.19 351.44 578.33 352.49 C 578.26 361.55 578.18 370.64 578.38 379.71 C 583.48 373.19 589.78 368.26 596.44 363.41 C 609.30 354.78 624.72 349.61 639.97 347.32 C 663.74 344.48 688.92 347.95 710.47 358.63 Z M 646.01 542.78 C 650.93 543.29 655.96 542.64 660.88 542.26 C 670.91 540.32 680.97 536.40 689.09 530.12 C 705.79 517.57 715.67 497.70 717.05 476.98 C 718.55 454.56 710.71 431.40 694.00 415.98 C 683.41 406.59 670.21 400.24 655.97 399.18 C 648.89 398.10 642.05 399.02 635.04 400.07 C 625.57 401.74 617.07 405.85 609.02 410.99 C 589.83 424.45 578.75 447.67 579.42 470.99 C 579.28 488.60 585.37 505.80 596.59 519.38 C 605.82 529.66 617.36 537.43 630.93 540.63 C 635.92 541.79 640.85 542.80 646.01 542.78 Z" id="p1" />
<path d="M 251.27 351.43 C 273.55 351.34 295.90 351.34 318.18 351.43 C 356.84 419.54 395.63 487.59 434.29 555.69 C 439.25 564.57 444.58 573.26 449.26 582.29 C 449.60 577.52 449.44 572.77 449.47 568.00 C 449.47 495.80 449.47 423.60 449.47 351.40 C 469.09 351.36 488.71 351.36 508.33 351.40 C 508.32 457.13 508.34 562.85 508.32 668.58 C 486.42 668.61 464.52 668.57 442.61 668.60 C 398.30 591.82 354.22 514.87 309.89 438.11 C 309.87 514.93 309.89 591.75 309.88 668.58 C 290.32 668.59 270.76 668.59 251.21 668.58 C 251.25 563.18 251.12 456.69 251.27 351.43 Z" id="p2" />
<path d="M 655.97 399.18 C 670.21 400.24 683.41 406.59 694.00 415.98 C 710.71 431.40 718.55 454.56 717.05 476.98 C 715.67 497.70 705.79 517.57 689.09 530.12 C 680.97 536.40 670.91 540.32 660.88 542.26 C 655.96 542.64 650.93 543.29 646.01 542.78 C 640.85 542.80 635.92 541.79 630.93 540.63 C 617.36 537.43 605.82 529.66 596.59 519.38 C 585.37 505.80 579.28 488.60 579.42 470.99 C 578.75 447.67 589.83 424.45 609.02 410.99 C 617.07 405.85 625.57 401.74 635.04 400.07 C 642.05 399.02 648.89 398.10 655.97 399.18 Z" id="p3" />
<path d="M 726.69 610.82 C 741.43 606.62 757.69 613.85 764.43 627.58 C 771.52 641.03 767.69 658.35 755.90 667.80 C 748.87 673.32 739.87 676.03 730.97 674.75 C 722.56 673.67 714.73 669.19 709.50 662.52 C 704.68 656.53 702.27 648.65 702.57 641.01 C 703.12 626.94 713.01 614.35 726.69 610.82 Z" id="p4" />
</defs>
<g stroke-width="0pt">
<use stroke="#ffffff" fill-opacity="0" xlink:href="#p0" />
<use stroke="#244c6d" xlink:href="#p1" />
<use stroke="#244c6d" xlink:href="#p2" />
<use stroke="#ffffff" fill-opacity="0" xlink:href="#p3" />
<use stroke="#bf0026" xlink:href="#p4" />
</g>
<g>
<use fill="#ffffff" fill-opacity="0" xlink:href="#p0" />
<use fill="#244c6d" xlink:href="#p1" />
<use fill="#244c6d" xlink:href="#p2" />
<use fill="#ffffff" fill-opacity="0" xlink:href="#p3" />
<use fill="#bf0026" xlink:href="#p4" />
</g>
</svg>